# xmcd
#
# Track frame offsets: 
#        150
#        13450
#        25622
#        39010
#        50948
#        60370
#        71925
#        83422
#        96704
#        109967
#        122284
#        134206
#        147581
#        161048
#        172656
#        182370
#        196492
#        207279
#        218772
#        229901
#        239660
#        250539
#        261900
#        273216
#        284502
#        294503
#        304854
#        314721
#        327649
#        338675
#
# Disc length: 4656 seconds
#
# Revision: 0
# Processed by: cddbd v1.5.2PL0 Copyright (c) Steve Scherf et al.
# Submitted via: ExactAudioCopyFreeDBPlugin 1.0
#
DISCID=d0122e1e
DTITLE=Jimmy Liggins - Knocking You Out
DYEAR=2016
DGENRE=R&B
TTITLE0=I Can't Stop It
TTITLE1=Troubles Goodbye
TTITLE2=Teardrops Blues
TTITLE3=Cadillac Boogie
TTITLE4=Move out Baby
TTITLE5=Careful Love
TTITLE6=Homecoming Blues
TTITLE7=Don't Put Me Down
TTITLE8=Nite Life Boogie
TTITLE9=Mississippi Boogie
TTITLE10=Answer to a Teardop Blues
TTITLE11=That Song Is Gone
TTITLE12=Saturday Night Boogie Woogie Man
TTITLE13=Shuffle Shuck
TTITLE14=That's What's Knocking Me Out
TTITLE15=Goin' Down with the Sun
TTITLE16=Jumpin' and Stompin'
TTITLE17=Drunk
TTITLE18=Going Away
TTITLE19=Comeback Home
TTITLE20=I Ain't Drunk
TTITLE21=Talking That Talk
TTITLE22=No More Alcohol
TTITLE23=Boogie Woogie King
TTITLE24=Knocked Out
TTITLE25=Ada from Decatur
TTITLE26=Good Loving Baby
TTITLE27=Working Man Blues
TTITLE28=Blues for Love
TTITLE29=Last Round
EXTD=
EXTT0=
EXTT1=
EXTT2=
EXTT3=
EXTT4=
EXTT5=
EXTT6=
EXTT7=
EXTT8=
EXTT9=
EXTT10=
EXTT11=
EXTT12=
EXTT13=
EXTT14=
EXTT15=
EXTT16=
EXTT17=
EXTT18=
EXTT19=
EXTT20=
EXTT21=
EXTT22=
EXTT23=
EXTT24=
EXTT25=
EXTT26=
EXTT27=
EXTT28=
EXTT29=
PLAYORDER=
